<?xml version="1.0" encoding="utf-8"?>
<!-- Generator: Adobe Illustrator 16.0.0, SVG Export Plug-In . SVG Version: 6.00 Build 0)  -->
<!DOCTYPE svg PUBLIC "-//W3C//DTD SVG 1.1//EN" "http://www.w3.org/Graphics/SVG/1.1/DTD/svg11.dtd">
<svg version="1.1" id="Layer_1" xmlns="http://www.w3.org/2000/svg" xmlns:xlink="http://www.w3.org/1999/xlink" x="0px" y="0px"
	 width="104px" height="58px" viewBox="0 0 104 58" enable-background="new 0 0 104 58" xml:space="preserve">
<g>
	<path fill-rule="evenodd" clip-rule="evenodd" fill="#0F0F10" d="M27.8720703,26.25h-7.0703125l6.59375-16.9790039
		c1.6933594-4.3613281,2.2373047-5.6264648,5.7255859-5.6625977c3.4638672,0.0307617,4.0458984,0.9926758,4.0458984,5.9995117
		v0.3344727h11.0302734c0-2.8623047,0-5.7241211,0-8.5864258h-8.4902344L27.4482422,1.2631836
		c-6.6865234-0.0498047-9.2832031,3.3774414-11.7661133,8.9770508L3.043457,38.7294922H15.956543l2.0107422-5.1777344
		c1.815918-4.1826172,4.309082-5.0429688,7.487793-5.0429688h8.3769531V26.25H27.8720703L27.8720703,26.25L27.8720703,26.25z"/>
	<path fill-rule="evenodd" clip-rule="evenodd" fill="#0F0F10" d="M72.2255859,38.6367188h-11.03125V21.3105469
		c0-5.0917969-2.4023438-6.3227539-6.0244141-6.3227539h-6.9726563v23.6489258H37.1669922V12.7290039
		c8.4072266,0,16.8144531,0,25.2236328,0c6.6875,0,9.8349609,3.0517578,9.8349609,9.6206055V30.5625V38.6367188
		L72.2255859,38.6367188z"/>
	<path fill-rule="evenodd" clip-rule="evenodd" fill="#0F0F10" d="M72.2255859,11.5444336v2.0087891
		c-1.7773438-2.5043945-4.8046875-3.7041016-9.1621094-3.7041016h-1.8691406V1.2626953c7.8339844,0,16.0673828,0,23.9003906,0
		c7.7382813,0,16.5136719,4.09375,16.5136719,18.902832c0,14.8071289-9.125,18.4711914-16.5136719,18.4711914h-9.5332031v-2.2597656
		c7.2333984,0.0097656,14.5332031-0.0917969,14.5332031-15.7055664c0-16.3769531-5.2421875-17.1494141-13.1425781-17.1494141
		C73.3310547,3.5219727,72.2255859,6.4526367,72.2255859,11.5444336L72.2255859,11.5444336z"/>
	<path fill="#0F0F10" d="M11.8745117,52.4169922l0.0170898,0.0498047c-0.0522461,1.3857422-0.4643555,2.4443359-1.2294922,3.1738281
		c-0.7661133,0.7314453-1.8769531,1.0966797-3.3310547,1.0966797c-1.4638672,0-2.6508789-0.4492188-3.5678711-1.3457031
		c-0.9145508-0.9023438-1.371582-2.0703125-1.371582-3.5019531v-2.4707031c0-1.4287109,0.4404297-2.5908203,1.3188477-3.4931641
		c0.8823242-0.8994141,2.0234375-1.3505859,3.4316406-1.3505859c1.4936523,0,2.6357422,0.3759766,3.4282227,1.1269531
		c0.7890625,0.7529297,1.2348633,1.8212891,1.3369141,3.2060547l-0.015625,0.0488281h-2.671875
		c-0.0361328-0.7675781-0.2080078-1.3369141-0.5146484-1.7119141c-0.3056641-0.375-0.8261719-0.5585938-1.5629883-0.5585938
		c-0.621582,0-1.1123047,0.2490234-1.46875,0.75C5.3154297,47.9375,5.1381836,48.59375,5.1381836,49.4042969v2.4853516
		c0,0.8183594,0.1938477,1.4775391,0.5849609,1.9804688C6.1113281,54.3740234,6.6489258,54.625,7.3310547,54.625
		c0.6582031,0,1.1264648-0.1757813,1.4003906-0.5263672c0.277832-0.3515625,0.4355469-0.9101563,0.472168-1.6816406H11.8745117
		L11.8745117,52.4169922z M23.1269531,51.7167969c0,1.4580078-0.4609375,2.6601563-1.3847656,3.6035156
		c-0.9228516,0.9453125-2.1269531,1.4169922-3.6162109,1.4169922c-1.4995117,0-2.7148438-0.4716797-3.6469727-1.4169922
		c-0.9296875-0.9433594-1.3964844-2.1455078-1.3964844-3.6035156v-2.1240234c0-1.453125,0.4667969-2.6494141,1.3955078-3.5957031
		c0.9282227-0.9492188,2.137207-1.421875,3.6323242-1.421875c1.4824219,0,2.6875,0.4726563,3.6201172,1.421875
		c0.9296875,0.9462891,1.3964844,2.1425781,1.3964844,3.5957031V51.7167969L23.1269531,51.7167969z M20.390625,49.5771484
		c0-0.8476563-0.1992188-1.5400391-0.5976563-2.0800781c-0.3974609-0.5400391-0.9580078-0.8105469-1.6826172-0.8105469
		c-0.7421875,0-1.309082,0.2675781-1.7021484,0.8056641c-0.394043,0.5390625-0.5874023,1.2314453-0.5874023,2.0849609v2.1396484
		c0,0.8583984,0.1962891,1.5556641,0.5947266,2.0957031c0.3999023,0.5400391,0.9677734,0.8125,1.7104492,0.8125
		c0.71875,0,1.2773438-0.2724609,1.671875-0.8125c0.3955078-0.5400391,0.5927734-1.2373047,0.5927734-2.0957031V49.5771484
		L20.390625,49.5771484z M34.5859375,56.5634766h-2.7382813L27.5205078,49.03125l-0.0507813,0.015625v7.5166016h-2.75V44.7421875
		h2.75l4.3310547,7.5361328l0.046875-0.015625v-7.5205078h2.7382813V56.5634766L34.5859375,56.5634766z M42.7207031,53.4345703
		c0-0.4189453-0.1396484-0.7412109-0.4189453-0.9677734c-0.2724609-0.2285156-0.7695313-0.46875-1.4833984-0.7236328
		c-1.4951172-0.4716797-2.5986328-0.9755859-3.3203125-1.5136719c-0.7216797-0.5390625-1.0810547-1.3164063-1.0810547-2.3359375
		c0-0.9892578,0.4306641-1.7890625,1.2871094-2.4033203c0.859375-0.6113281,1.9462891-0.9150391,3.2685547-0.9150391
		c1.3095703,0,2.3847656,0.3359375,3.21875,1.0097656c0.8369141,0.6748047,1.2412109,1.5419922,1.2128906,2.6015625
		l-0.0136719,0.046875h-2.6621094c0-0.46875-0.1611328-0.8515625-0.4804688-1.1455078
		c-0.3212891-0.2958984-0.7626953-0.4433594-1.3242188-0.4433594c-0.5517578,0-0.984375,0.1210938-1.2998047,0.3642578
		c-0.3125,0.2441406-0.46875,0.5429688-0.46875,0.9023438c0,0.3457031,0.1582031,0.625,0.4736328,0.8320313
		c0.3164063,0.2089844,0.9111328,0.46875,1.7822266,0.7841797c1.3398438,0.4013672,2.3525391,0.8916016,3.03125,1.4765625
		s1.0205078,1.3867188,1.0205078,2.4130859c0,1.0400391-0.4042969,1.8505859-1.2148438,2.4394531
		c-0.8095703,0.5869141-1.8808594,0.8808594-3.21875,0.8808594c-1.3417969,0-2.5019531-0.3388672-3.484375-1.0126953
		c-0.9785156-0.671875-1.4550781-1.6416016-1.4267578-2.9091797l0.015625-0.0498047h2.671875
		c0,0.6826172,0.1845703,1.1708984,0.5517578,1.4638672c0.3681641,0.2919922,0.9257813,0.4384766,1.671875,0.4384766
		c0.5673828,0,0.9921875-0.1152344,1.2705078-0.3408203C42.5791016,54.0986328,42.7207031,53.7998047,42.7207031,53.4345703
		L42.7207031,53.4345703z M56.6416016,44.7421875v7.7460938c0,1.3505859-0.4492188,2.3945313-1.3427734,3.1367188
		c-0.8964844,0.7421875-2.0693359,1.1123047-3.5205078,1.1123047c-1.4648438,0-2.6494141-0.3701172-3.5488281-1.1123047
		c-0.8974609-0.7421875-1.3476563-1.7861328-1.3476563-3.1367188v-7.7460938h2.7548828v7.7460938
		c0,0.7265625,0.1855469,1.2636719,0.5595703,1.6123047S51.0976563,54.625,51.7783203,54.625
		c0.6757813,0,1.1972656-0.1757813,1.5644531-0.5214844c0.3642578-0.3466797,0.5478516-0.8837891,0.5478516-1.6152344v-7.7460938
		H56.6416016L56.6416016,44.7421875z M61.1943359,54.4521484h5.0908203v2.1113281h-7.8408203V44.7421875h2.75V54.4521484
		L61.1943359,54.4521484z M74.3652344,46.8544922h-3.1142578v9.7089844h-2.7568359v-9.7089844h-3.0917969v-2.1123047h8.9628906
		V46.8544922L74.3652344,46.8544922z M78.4033203,56.5634766h-2.7382813V44.7421875h2.7382813V56.5634766L78.4033203,56.5634766z
		 M90.3046875,56.5634766h-2.7382813L83.2412109,49.03125l-0.0498047,0.015625v7.5166016h-2.7529297V44.7421875h2.7529297
		l4.3291016,7.5361328l0.0458984-0.015625v-7.5205078h2.7382813V56.5634766L90.3046875,56.5634766z M101.4990234,54.9355469
		c-0.4023438,0.4736328-0.9824219,0.8945313-1.7480469,1.2587891c-0.7617188,0.3623047-1.7197266,0.5429688-2.8740234,0.5429688
		c-1.4609375,0-2.6455078-0.4492188-3.5585938-1.3457031c-0.9140625-0.9023438-1.3662109-2.0703125-1.3662109-3.5019531v-2.4707031
		c0-1.4238281,0.4423828-2.5859375,1.3339844-3.4902344c0.8886719-0.9023438,2.0351563-1.3535156,3.4355469-1.3535156
		c1.5214844,0,2.6591797,0.3515625,3.421875,1.0546875c0.7539063,0.7021484,1.1875,1.6650391,1.2890625,2.8818359
		L101.4160156,48.5625h-2.5742188c-0.0888672-0.625-0.2929688-1.0917969-0.6025391-1.4072266
		c-0.3115234-0.3105469-0.7880859-0.46875-1.4248047-0.46875c-0.640625,0-1.1542969,0.2519531-1.5458984,0.7578125
		c-0.3896484,0.5087891-0.5839844,1.1591797-0.5839844,1.9599609v2.4853516c0,0.8232422,0.1914063,1.4824219,0.578125,1.9853516
		c0.3837891,0.5019531,0.9208984,0.75,1.6142578,0.75c0.5058594,0,0.8994141-0.0410156,1.1865234-0.1230469
		c0.2851563-0.078125,0.5136719-0.1855469,0.6816406-0.3222656V52.3125h-1.859375v-1.8183594h4.6132813V54.9355469
		L101.4990234,54.9355469z"/>
</g>
</svg>
